<svg xmlns="http://www.w3.org/2000/svg" xmlns:xlink="http://www.w3.org/1999/xlink" viewBox="0,0,256,256" width="16px" height="16px" fill-rule="nonzero"><g fill-opacity="0" fill="#ffffff" fill-rule="nonzero" stroke="none" stroke-width="1" stroke-linecap="butt" stroke-linejoin="miter" stroke-miterlimit="10" stroke-dasharray="" stroke-dashoffset="0" font-family="none" font-weight="none" font-size="none" text-anchor="none" style="mix-blend-mode: normal"><path d="M0,256v-256h256v256z" id="bgRectangle"></path></g><g fill="#ffffff" fill-rule="nonzero" stroke="none" stroke-width="1" stroke-linecap="butt" stroke-linejoin="miter" stroke-miterlimit="10" stroke-dasharray="" stroke-dashoffset="0" font-family="none" font-weight="none" font-size="none" text-anchor="none" style="mix-blend-mode: normal"><g transform="scale(16,16)"><path d="M8,2c-2.03906,0 -3.84375,0.21094 -4.94141,0.375c-0.89844,0.13281 -1.61328,0.83594 -1.77734,1.73828c-0.14062,0.78906 -0.28125,1.94141 -0.28125,3.38672c0,1.44531 0.14063,2.59766 0.28125,3.38672c0.16406,0.90234 0.87891,1.60156 1.77734,1.73828c1.10156,0.16406 2.91406,0.375 4.94141,0.375c2.02734,0 3.83594,-0.21094 4.9375,-0.375h0.00391c0.89844,-0.13281 1.61328,-0.83594 1.77734,-1.73828c0.14063,-0.79297 0.28125,-1.94531 0.28125,-3.38672c0,-1.44531 -0.14062,-2.59766 -0.28516,-3.38672c-0.16016,-0.90234 -0.875,-1.60547 -1.77344,-1.73828c-1.09766,-0.16406 -2.90234,-0.375 -4.94141,-0.375zM8,3c1.96875,0 3.73047,0.20313 4.79297,0.36328c0.46875,0.07031 0.84766,0.4375 0.9375,0.92578c0.13281,0.73828 0.26953,1.83203 0.26953,3.21094c0,1.37891 -0.13672,2.47266 -0.26562,3.20703c-0.08984,0.49219 -0.46875,0.85938 -0.94141,0.92969c-1.07031,0.15625 -2.83594,0.36328 -4.79297,0.36328c-1.95703,0 -3.72656,-0.20703 -4.79297,-0.36328c-0.46875,-0.07031 -0.85156,-0.4375 -0.94141,-0.92969c-0.12891,-0.73828 -0.26562,-1.82812 -0.26562,-3.20703c0,-1.38281 0.13672,-2.47266 0.26563,-3.21094c0.08984,-0.48828 0.46875,-0.85547 0.9375,-0.92187h0.00391c1.0625,-0.16016 2.82422,-0.36719 4.79297,-0.36719zM6,5v5l5,-2.5z"></path></g></g></svg>